<mxfile host="app.diagrams.net" agent="Mozilla/5.0 (Windows NT 10.0; Win64; x64) AppleWebKit/537.36 (KHTML, like Gecko) Chrome/129.0.0.0 Safari/537.36 Edg/129.0.0.0" version="24.7.16">
  <diagram name="第 1 页" id="MvUVPEdfKyzgOquGnLm0">
    <mxGraphModel dx="677" dy="1807" grid="1" gridSize="10" guides="1" tooltips="1" connect="1" arrows="1" fold="1" page="1" pageScale="1" pageWidth="827" pageHeight="1169" math="0" shadow="0">
      <root>
        <mxCell id="0" />
        <mxCell id="1" parent="0" />
        <mxCell id="91GilUbD5dbzkyosnsqj-4" value="“眼在手上”控制流程" style="swimlane;childLayout=stackLayout;resizeParent=1;resizeParentMax=0;startSize=30;html=1;" vertex="1" parent="1">
          <mxGeometry x="220" y="-20" width="420" height="490" as="geometry" />
        </mxCell>
        <mxCell id="91GilUbD5dbzkyosnsqj-41" value="" style="edgeStyle=orthogonalEdgeStyle;rounded=0;orthogonalLoop=1;jettySize=auto;html=1;" edge="1" parent="91GilUbD5dbzkyosnsqj-4" source="91GilUbD5dbzkyosnsqj-10" target="91GilUbD5dbzkyosnsqj-34">
          <mxGeometry relative="1" as="geometry" />
        </mxCell>
        <mxCell id="91GilUbD5dbzkyosnsqj-42" value="" style="edgeStyle=orthogonalEdgeStyle;rounded=0;orthogonalLoop=1;jettySize=auto;html=1;" edge="1" parent="91GilUbD5dbzkyosnsqj-4" source="91GilUbD5dbzkyosnsqj-11" target="91GilUbD5dbzkyosnsqj-35">
          <mxGeometry relative="1" as="geometry" />
        </mxCell>
        <mxCell id="91GilUbD5dbzkyosnsqj-5" value="机器人" style="swimlane;startSize=30;html=1;arcSize=5;" vertex="1" parent="91GilUbD5dbzkyosnsqj-4">
          <mxGeometry y="30" width="210" height="460" as="geometry" />
        </mxCell>
        <mxCell id="91GilUbD5dbzkyosnsqj-36" value="" style="edgeStyle=orthogonalEdgeStyle;rounded=0;orthogonalLoop=1;jettySize=auto;html=1;entryX=0.5;entryY=0;entryDx=0;entryDy=0;" edge="1" parent="91GilUbD5dbzkyosnsqj-5" source="91GilUbD5dbzkyosnsqj-8" target="91GilUbD5dbzkyosnsqj-9">
          <mxGeometry relative="1" as="geometry" />
        </mxCell>
        <mxCell id="91GilUbD5dbzkyosnsqj-8" value="开始" style="strokeWidth=1;html=1;shape=mxgraph.flowchart.terminator;whiteSpace=wrap;" vertex="1" parent="91GilUbD5dbzkyosnsqj-5">
          <mxGeometry x="25" y="55" width="150" height="30" as="geometry" />
        </mxCell>
        <mxCell id="91GilUbD5dbzkyosnsqj-39" value="" style="edgeStyle=orthogonalEdgeStyle;rounded=0;orthogonalLoop=1;jettySize=auto;html=1;entryX=0.5;entryY=0;entryDx=0;entryDy=0;" edge="1" parent="91GilUbD5dbzkyosnsqj-5" source="91GilUbD5dbzkyosnsqj-9" target="91GilUbD5dbzkyosnsqj-10">
          <mxGeometry relative="1" as="geometry" />
        </mxCell>
        <mxCell id="91GilUbD5dbzkyosnsqj-9" value="移动到拍照位" style="rounded=1;whiteSpace=wrap;html=1;absoluteArcSize=1;arcSize=14;strokeWidth=1;imageHeight=30;" vertex="1" parent="91GilUbD5dbzkyosnsqj-5">
          <mxGeometry x="25" y="120" width="150" height="30" as="geometry" />
        </mxCell>
        <mxCell id="91GilUbD5dbzkyosnsqj-45" value="" style="edgeStyle=orthogonalEdgeStyle;rounded=0;orthogonalLoop=1;jettySize=auto;html=1;entryX=0.5;entryY=0;entryDx=0;entryDy=0;" edge="1" parent="91GilUbD5dbzkyosnsqj-5" source="91GilUbD5dbzkyosnsqj-10" target="91GilUbD5dbzkyosnsqj-11">
          <mxGeometry relative="1" as="geometry" />
        </mxCell>
        <mxCell id="91GilUbD5dbzkyosnsqj-10" value="发送105指令" style="rounded=1;whiteSpace=wrap;html=1;absoluteArcSize=1;arcSize=14;strokeWidth=1;imageHeight=30;" vertex="1" parent="91GilUbD5dbzkyosnsqj-5">
          <mxGeometry x="25" y="170" width="150" height="30" as="geometry" />
        </mxCell>
        <mxCell id="91GilUbD5dbzkyosnsqj-11" value="发送101指令" style="rounded=1;whiteSpace=wrap;html=1;absoluteArcSize=1;arcSize=14;strokeWidth=1;imageHeight=30;" vertex="1" parent="91GilUbD5dbzkyosnsqj-5">
          <mxGeometry x="25" y="220" width="150" height="30" as="geometry" />
        </mxCell>
        <mxCell id="91GilUbD5dbzkyosnsqj-48" value="" style="edgeStyle=orthogonalEdgeStyle;rounded=0;orthogonalLoop=1;jettySize=auto;html=1;" edge="1" parent="91GilUbD5dbzkyosnsqj-5" source="91GilUbD5dbzkyosnsqj-17" target="91GilUbD5dbzkyosnsqj-24">
          <mxGeometry relative="1" as="geometry" />
        </mxCell>
        <mxCell id="91GilUbD5dbzkyosnsqj-17" value="接收定位识别结果" style="rounded=1;whiteSpace=wrap;html=1;absoluteArcSize=1;arcSize=14;strokeWidth=1;imageHeight=30;" vertex="1" parent="91GilUbD5dbzkyosnsqj-5">
          <mxGeometry x="25" y="270" width="150" height="30" as="geometry" />
        </mxCell>
        <mxCell id="91GilUbD5dbzkyosnsqj-47" value="" style="edgeStyle=orthogonalEdgeStyle;rounded=0;orthogonalLoop=1;jettySize=auto;html=1;" edge="1" parent="91GilUbD5dbzkyosnsqj-5" source="91GilUbD5dbzkyosnsqj-24" target="91GilUbD5dbzkyosnsqj-25">
          <mxGeometry relative="1" as="geometry" />
        </mxCell>
        <mxCell id="91GilUbD5dbzkyosnsqj-24" value="移动到目标位置抓取物品" style="rounded=1;whiteSpace=wrap;html=1;absoluteArcSize=1;arcSize=14;strokeWidth=1;imageHeight=30;" vertex="1" parent="91GilUbD5dbzkyosnsqj-5">
          <mxGeometry x="25" y="320" width="150" height="30" as="geometry" />
        </mxCell>
        <mxCell id="91GilUbD5dbzkyosnsqj-25" value="结束" style="strokeWidth=1;html=1;shape=mxgraph.flowchart.terminator;whiteSpace=wrap;" vertex="1" parent="91GilUbD5dbzkyosnsqj-5">
          <mxGeometry x="25" y="385" width="150" height="30" as="geometry" />
        </mxCell>
        <mxCell id="91GilUbD5dbzkyosnsqj-6" value="视觉系统" style="swimlane;startSize=30;html=1;" vertex="1" parent="91GilUbD5dbzkyosnsqj-4">
          <mxGeometry x="210" y="30" width="210" height="460" as="geometry" />
        </mxCell>
        <mxCell id="91GilUbD5dbzkyosnsqj-34" value="拍照" style="rounded=1;whiteSpace=wrap;html=1;absoluteArcSize=1;arcSize=14;strokeWidth=1;imageHeight=30;" vertex="1" parent="91GilUbD5dbzkyosnsqj-6">
          <mxGeometry x="40" y="170" width="150" height="30" as="geometry" />
        </mxCell>
        <mxCell id="91GilUbD5dbzkyosnsqj-35" value="定位识别" style="rounded=1;whiteSpace=wrap;html=1;absoluteArcSize=1;arcSize=14;strokeWidth=1;imageHeight=30;" vertex="1" parent="91GilUbD5dbzkyosnsqj-6">
          <mxGeometry x="40" y="220" width="150" height="30" as="geometry" />
        </mxCell>
        <mxCell id="91GilUbD5dbzkyosnsqj-49" style="edgeStyle=orthogonalEdgeStyle;rounded=0;orthogonalLoop=1;jettySize=auto;html=1;entryX=1;entryY=0.5;entryDx=0;entryDy=0;" edge="1" parent="91GilUbD5dbzkyosnsqj-4" source="91GilUbD5dbzkyosnsqj-35" target="91GilUbD5dbzkyosnsqj-17">
          <mxGeometry relative="1" as="geometry">
            <mxPoint x="175" y="305" as="targetPoint" />
            <Array as="points">
              <mxPoint x="325" y="320" />
              <mxPoint x="190" y="320" />
              <mxPoint x="190" y="305" />
              <mxPoint x="175" y="305" />
            </Array>
          </mxGeometry>
        </mxCell>
      </root>
    </mxGraphModel>
  </diagram>
</mxfile>
